<svg xmlns="http://www.w3.org/2000/svg" viewBox="0 0 612 792"><defs><style>.a{fill:#f1f2f2;}</style></defs><path class="a" d="M351.22,310c-1.71,4.39-4.56,10.47-5.34,13.8-3,12.93-7.84,18.47-15.72,29.07a102.54,102.54,0,0,0-9.8,16.54c-1.13,2.43-4.84,5.48-7.11,5.27-13.33-1.22-22.74-8.89-29.6-20-1.95-3.16-1.55-2.43-4-6.26-8.26,13.4-14.24,25.37-23.66,36.1-19,19.87-25.46,17.79-37.36,27.26-1.92,1.53-5.39,1.09-8.14,1.57l-.72-2.29c5-3.45,10.17-6.69,15-10.4,19.15-14.84,31.29-34.95,42-56.17,5.15-10.24,10.27-11,17.65-2.24,3.45,4.09,5.45,9.37,8.71,13.65,2.63,3.46,5.71,7.06,9.41,9.12,6.18,3.43,11.06,3.57,14.38-5.31,7.21-19.32,15.76-38.16,24.09-57,1.38-3.12,4.42-5.5,6.69-8.22,2.52,2.42,6.2,4.39,7.37,7.34,9.32,23.5,17.95,47.27,27.24,70.78,5.12,13,11.22,25.55,16.62,38.41,1.53,3.65,2.14,7.68,3.37,12.24-6.28-2.28-23.49-38.37-29.73-56C365.48,347.29,360,331.17,351.22,310Z"/></svg>