<svg xmlns="http://www.w3.org/2000/svg" viewBox="209.77 294.49 192.53 213.64"><defs><style>.a{fill:#4a6cf7;}</style></defs><path class="a" d="M214.79,429.12a1.64,1.64,0,0,1,.41.11,1.31,1.31,0,0,1,.34.24,3.8,3.8,0,0,1,.38.4L226.3,443q-.06-.63-.09-1.23t0-1.11V429.09h4.47V451H228a2.43,2.43,0,0,1-1-.18,2.12,2.12,0,0,1-.78-.66l-10.3-13c0,.38.05.75.07,1.11s0,.71,0,1V451h-4.47V429.09h2.67A4.11,4.11,0,0,1,214.79,429.12Z"/><path class="a" d="M259.75,440a11.85,11.85,0,0,1-.82,4.41,10.66,10.66,0,0,1-2.3,3.55,10.54,10.54,0,0,1-3.58,2.36,13,13,0,0,1-9.29,0,10.4,10.4,0,0,1-5.91-5.91,12.41,12.41,0,0,1,0-8.82,10.64,10.64,0,0,1,2.31-3.54,10.75,10.75,0,0,1,3.6-2.35,12.22,12.22,0,0,1,4.65-.86,12,12,0,0,1,4.64.87,10.41,10.41,0,0,1,5.88,5.9A11.78,11.78,0,0,1,259.75,440Zm-5.19,0a9.38,9.38,0,0,0-.42-2.91,6.23,6.23,0,0,0-1.21-2.2,5.26,5.26,0,0,0-1.93-1.38,6.61,6.61,0,0,0-2.59-.48,6.73,6.73,0,0,0-2.62.48,5.21,5.21,0,0,0-1.94,1.38,6.21,6.21,0,0,0-1.2,2.2,10.36,10.36,0,0,0,0,5.84,6.21,6.21,0,0,0,1.2,2.2,5.21,5.21,0,0,0,1.94,1.38,6.92,6.92,0,0,0,2.62.47,6.8,6.8,0,0,0,2.59-.47,5.26,5.26,0,0,0,1.93-1.38,6.23,6.23,0,0,0,1.21-2.2A9.46,9.46,0,0,0,254.56,440Z"/><path class="a" d="M271.19,442.86V451h-5.07V429.09h7.11a14.78,14.78,0,0,1,4,.49,7.59,7.59,0,0,1,2.73,1.36,5.18,5.18,0,0,1,1.54,2.05,6.81,6.81,0,0,1,.48,2.58,6.93,6.93,0,0,1-.29,2,5.92,5.92,0,0,1-.85,1.75,6.43,6.43,0,0,1-1.38,1.43,7.24,7.24,0,0,1-1.88,1,4.61,4.61,0,0,1,.95.63,3.64,3.64,0,0,1,.78.91L284,451h-4.59a2,2,0,0,1-1.83-1L274,443.64a1.51,1.51,0,0,0-.57-.6,1.84,1.84,0,0,0-.9-.18Zm0-3.49h2a5.09,5.09,0,0,0,1.76-.27,3.14,3.14,0,0,0,1.19-.72,2.76,2.76,0,0,0,.68-1.09,4.14,4.14,0,0,0,.21-1.34,2.83,2.83,0,0,0-.94-2.25,4.37,4.37,0,0,0-2.9-.81h-2Z"/><path class="a" d="M305,429.09v4h-6.15V451h-5.07V433.11h-6.15v-4Z"/><path class="a" d="M329.59,451h-5.1v-9.24h-8.88V451h-5.1V429.09h5.1v9.14h8.88v-9.14h5.1Z"/><path class="a" d="M351.21,429.09V433h-9v5.1h6.87v3.75h-6.87v5.21h9V451H337.14V429.09Z"/><path class="a" d="M363,442.86V451H358V429.09h7.11a14.73,14.73,0,0,1,4,.49,7.56,7.56,0,0,1,2.74,1.36,5.15,5.15,0,0,1,1.53,2.05,6.81,6.81,0,0,1,.48,2.58,6.93,6.93,0,0,1-.28,2,6.17,6.17,0,0,1-.85,1.75,6.91,6.91,0,0,1-1.38,1.43,7.24,7.24,0,0,1-1.88,1,4.61,4.61,0,0,1,.95.63,3.61,3.61,0,0,1,.77.91l4.65,7.61h-4.59a2,2,0,0,1-1.83-1l-3.63-6.35a1.56,1.56,0,0,0-.56-.6,1.91,1.91,0,0,0-.91-.18Zm0-3.49h2a5.15,5.15,0,0,0,1.77-.27,3.14,3.14,0,0,0,1.19-.72,2.73,2.73,0,0,0,.67-1.09,4.14,4.14,0,0,0,.21-1.34,2.8,2.8,0,0,0-.94-2.25,4.35,4.35,0,0,0-2.9-.81h-2Z"/><path class="a" d="M384.58,429.12a1.27,1.27,0,0,1,.75.35,3.85,3.85,0,0,1,.37.4L396.08,443q-.06-.63-.09-1.23t0-1.11V429.09h4.47V451h-2.64a2.43,2.43,0,0,1-1-.18,2.12,2.12,0,0,1-.78-.66l-10.3-13c0,.38,0,.75.07,1.11s0,.71,0,1V451h-4.47V429.09H384A4.39,4.39,0,0,1,384.58,429.12Z"/><path class="a" d="M229.34,462.57a2.76,2.76,0,0,1-.66.75,1.46,1.46,0,0,1-.89.25,2.21,2.21,0,0,1-1-.3l-1.26-.68a11.62,11.62,0,0,0-1.61-.69,6.52,6.52,0,0,0-2.06-.3,4.41,4.41,0,0,0-3,.85,2.89,2.89,0,0,0-1,2.3,2.1,2.1,0,0,0,.58,1.53,5,5,0,0,0,1.55,1.05,14.71,14.71,0,0,0,2.18.81c.82.25,1.66.52,2.51.82a23.86,23.86,0,0,1,2.51,1.06,8.33,8.33,0,0,1,2.18,1.56,7.11,7.11,0,0,1,1.55,2.3,8.19,8.19,0,0,1,.59,3.26,10.62,10.62,0,0,1-.74,4,9.24,9.24,0,0,1-2.13,3.22,10,10,0,0,1-3.44,2.17,13,13,0,0,1-4.66.78,15.25,15.25,0,0,1-2.9-.29,17.22,17.22,0,0,1-2.87-.83,16.5,16.5,0,0,1-2.6-1.27,11.22,11.22,0,0,1-2.13-1.64l2.1-3.32a1.77,1.77,0,0,1,.66-.61,1.85,1.85,0,0,1,.9-.23,2.45,2.45,0,0,1,1.27.4l1.45.88a11.51,11.51,0,0,0,1.86.89,7.07,7.07,0,0,0,2.47.4,4.79,4.79,0,0,0,3-.85,3.26,3.26,0,0,0,1.07-2.7,2.57,2.57,0,0,0-.59-1.75,4.63,4.63,0,0,0-1.54-1.11,15.24,15.24,0,0,0-2.18-.78c-.81-.22-1.64-.47-2.5-.74a19.81,19.81,0,0,1-2.5-1,7.8,7.8,0,0,1-2.17-1.58,7.28,7.28,0,0,1-1.54-2.43,9.68,9.68,0,0,1-.59-3.6,8.56,8.56,0,0,1,.69-3.36,8.72,8.72,0,0,1,2-2.92,10,10,0,0,1,3.3-2.05,12.17,12.17,0,0,1,4.47-.77,17.57,17.57,0,0,1,2.74.22,14.76,14.76,0,0,1,4.77,1.68,10.86,10.86,0,0,1,1.86,1.36Z"/><path class="a" d="M252.26,481.34a6.62,6.62,0,0,0,2.55-.47,5.22,5.22,0,0,0,1.9-1.36,6,6,0,0,0,1.19-2.15,9.51,9.51,0,0,0,.41-2.89V456.35h7.1v18.12a14.15,14.15,0,0,1-.92,5.17,11.58,11.58,0,0,1-2.61,4.05,11.83,11.83,0,0,1-4.14,2.65,16.5,16.5,0,0,1-11,0,11.65,11.65,0,0,1-4.14-2.65,11.42,11.42,0,0,1-2.6-4.05,14.15,14.15,0,0,1-.91-5.17V456.35h7.1v18.1a9.51,9.51,0,0,0,.41,2.89,5.94,5.94,0,0,0,1.19,2.16,5.13,5.13,0,0,0,1.9,1.37A6.62,6.62,0,0,0,252.26,481.34Z"/><path class="a" d="M291.22,474.62c.25.57.5,1.16.74,1.76.24-.61.49-1.21.76-1.79s.54-1.15.82-1.7l7.85-15.47a2.67,2.67,0,0,1,.43-.62,1.54,1.54,0,0,1,.49-.32,1.75,1.75,0,0,1,.62-.11h6.23V487H302.9v-17.6c0-.85,0-1.78.13-2.77l-8.11,15.73a2.62,2.62,0,0,1-1,1.11,2.81,2.81,0,0,1-1.46.38h-1a2.81,2.81,0,0,1-1.46-.38,2.62,2.62,0,0,1-1-1.11l-8.15-15.75c.06.49.1,1,.13,1.46s0,.92,0,1.33V487h-6.26V456.37H281a1.71,1.71,0,0,1,.62.11,1.54,1.54,0,0,1,.49.32,2.67,2.67,0,0,1,.43.62L290.41,473C290.69,473.49,291,474,291.22,474.62Z"/><path class="a" d="M335.31,474.62c.26.57.51,1.16.75,1.76.23-.61.49-1.21.75-1.79s.54-1.15.82-1.7l7.85-15.47a3,3,0,0,1,.43-.62,1.58,1.58,0,0,1,.5-.32,1.71,1.71,0,0,1,.62-.11h6.22V487H347v-17.6c0-.85,0-1.78.12-2.77L339,482.31a2.75,2.75,0,0,1-1,1.11,2.86,2.86,0,0,1-1.46.38h-1a2.86,2.86,0,0,1-1.46-.38,2.75,2.75,0,0,1-1-1.11L325,466.56c.05.49.09,1,.12,1.46s0,.92,0,1.33V487h-6.25V456.37h6.22a1.71,1.71,0,0,1,.62.11,1.43,1.43,0,0,1,.49.32,2.68,2.68,0,0,1,.44.62L334.5,473C334.78,473.49,335.05,474,335.31,474.62Z"/><path class="a" d="M370.38,487h-7.14v-30.6h7.14Z"/><path class="a" d="M401.81,456.35V462H393.2v25h-7.1V462h-8.61v-5.63Z"/><path class="a" d="M221.31,504a.56.56,0,0,1,.25.05.54.54,0,0,1,.24.16l1.41,1.48a5.91,5.91,0,0,1-2.32,1.82,8,8,0,0,1-3.29.62,7.75,7.75,0,0,1-3.12-.6,6.64,6.64,0,0,1-2.34-1.64,7.3,7.3,0,0,1-1.48-2.47,9.28,9.28,0,0,1-.51-3.12,8,8,0,0,1,.59-3.14,7.26,7.26,0,0,1,1.64-2.47,7.19,7.19,0,0,1,2.52-1.62,8.74,8.74,0,0,1,3.25-.58,8.41,8.41,0,0,1,1.62.15,7.58,7.58,0,0,1,1.42.42,7,7,0,0,1,1.22.64,6.22,6.22,0,0,1,1,.83l-1.2,1.6a1.72,1.72,0,0,1-.27.27.72.72,0,0,1-.44.12.86.86,0,0,1-.36-.08,3.65,3.65,0,0,1-.36-.21l-.41-.26a3.41,3.41,0,0,0-.54-.26,4.49,4.49,0,0,0-.72-.21,5.5,5.5,0,0,0-1-.08,4.43,4.43,0,0,0-1.77.34,4,4,0,0,0-1.37,1,4.55,4.55,0,0,0-.89,1.54,6.07,6.07,0,0,0-.32,2,6.37,6.37,0,0,0,.32,2.09,4.87,4.87,0,0,0,.87,1.54,3.73,3.73,0,0,0,1.29.95,3.78,3.78,0,0,0,1.57.33,7.94,7.94,0,0,0,.89-.05,3.36,3.36,0,0,0,1.39-.46,5.81,5.81,0,0,0,.62-.46,1.34,1.34,0,0,1,.27-.17A.67.67,0,0,1,221.31,504Z"/><path class="a" d="M242,500.29a8.06,8.06,0,0,1-.58,3.09,7.34,7.34,0,0,1-4.11,4.14,9.13,9.13,0,0,1-6.51,0,7.38,7.38,0,0,1-2.51-1.66,7.3,7.3,0,0,1-1.62-2.48,8.63,8.63,0,0,1,0-6.17,7.21,7.21,0,0,1,1.62-2.48,7.51,7.51,0,0,1,2.51-1.65,9.13,9.13,0,0,1,6.51,0,7.64,7.64,0,0,1,2.5,1.66,7.18,7.18,0,0,1,1.61,2.48A8,8,0,0,1,242,500.29Zm-3.64,0a6.53,6.53,0,0,0-.29-2,4.33,4.33,0,0,0-.85-1.54,3.47,3.47,0,0,0-1.35-1,4.5,4.5,0,0,0-1.81-.34,4.56,4.56,0,0,0-1.83.34,3.58,3.58,0,0,0-1.36,1,4.16,4.16,0,0,0-.84,1.54,7.15,7.15,0,0,0,0,4.1,4.2,4.2,0,0,0,.84,1.53,3.72,3.72,0,0,0,1.36,1,4.94,4.94,0,0,0,1.83.33,4.87,4.87,0,0,0,1.81-.33,3.6,3.6,0,0,0,1.35-1,4.37,4.37,0,0,0,.85-1.53A6.57,6.57,0,0,0,238.35,500.29Z"/><path class="a" d="M248.58,492.67a.83.83,0,0,1,.28.08.78.78,0,0,1,.24.16,3.75,3.75,0,0,1,.27.28l7.26,9.19c0-.29-.05-.58-.06-.85s0-.54,0-.79v-8.09h3.13V508h-1.85a1.57,1.57,0,0,1-.69-.13,1.52,1.52,0,0,1-.55-.46l-7.21-9.11c0,.26,0,.52.05.78s0,.49,0,.72V508h-3.13v-15.3h1.87Z"/><path class="a" d="M273.37,495.76a1.61,1.61,0,0,1-.33.38.79.79,0,0,1-.45.12,1.12,1.12,0,0,1-.52-.15l-.63-.34a4.58,4.58,0,0,0-.8-.34,3,3,0,0,0-1-.16,2.24,2.24,0,0,0-1.49.43,1.47,1.47,0,0,0-.49,1.15,1.06,1.06,0,0,0,.3.77,2.53,2.53,0,0,0,.77.52,7.59,7.59,0,0,0,1.09.4c.41.13.83.26,1.26.41a12.31,12.31,0,0,1,1.25.53,4.5,4.5,0,0,1,1.09.78,3.57,3.57,0,0,1,.77,1.15,4,4,0,0,1,.3,1.63,5.26,5.26,0,0,1-.37,2,4.7,4.7,0,0,1-1.06,1.61,4.89,4.89,0,0,1-1.73,1.08,6.44,6.44,0,0,1-2.32.4,7.39,7.39,0,0,1-1.46-.15,8.71,8.71,0,0,1-1.43-.42,7.82,7.82,0,0,1-1.3-.63,5.62,5.62,0,0,1-1.06-.82l1-1.66a.77.77,0,0,1,.32-.3.9.9,0,0,1,.46-.12,1.2,1.2,0,0,1,.63.2l.72.44a5.75,5.75,0,0,0,.93.44,3.58,3.58,0,0,0,1.24.2,2.35,2.35,0,0,0,1.5-.42,1.63,1.63,0,0,0,.54-1.35,1.29,1.29,0,0,0-.29-.87,2.3,2.3,0,0,0-.78-.56,6.44,6.44,0,0,0-1.08-.39c-.41-.11-.82-.24-1.25-.37a9.1,9.1,0,0,1-1.25-.51,4,4,0,0,1-1.09-.78,3.85,3.85,0,0,1-.77-1.22,4.78,4.78,0,0,1-.29-1.8,4.24,4.24,0,0,1,.34-1.68,4.2,4.2,0,0,1,1-1.46,5.08,5.08,0,0,1,1.65-1,6.22,6.22,0,0,1,2.24-.38,8.94,8.94,0,0,1,1.37.11,6.48,6.48,0,0,1,1.26.33,6.72,6.72,0,0,1,1.12.51,5.07,5.07,0,0,1,.93.68Z"/><path class="a" d="M289.89,492.65v2.81h-4.31V508H282V495.46h-4.3v-2.81Z"/><path class="a" d="M297.19,502.29V508h-3.55v-15.3h5a10.1,10.1,0,0,1,2.83.34,5.26,5.26,0,0,1,1.91.95,3.56,3.56,0,0,1,1.08,1.44,4.81,4.81,0,0,1,.34,1.8,5,5,0,0,1-.2,1.41,4.2,4.2,0,0,1-.6,1.22,4.58,4.58,0,0,1-1,1,5.21,5.21,0,0,1-1.32.72,3.69,3.69,0,0,1,.67.44,3.1,3.1,0,0,1,.54.64l3.25,5.33h-3.21a1.37,1.37,0,0,1-1.28-.67l-2.54-4.45a1.16,1.16,0,0,0-.4-.42,1.36,1.36,0,0,0-.63-.12Zm0-2.45h1.42a3.73,3.73,0,0,0,1.24-.18,2.09,2.09,0,0,0,.83-.51,1.83,1.83,0,0,0,.47-.76,2.89,2.89,0,0,0,.15-.94,2,2,0,0,0-.65-1.58,3.07,3.07,0,0,0-2-.56h-1.42Z"/><path class="a" d="M316.09,505.14a3.38,3.38,0,0,0,1.27-.23,2.62,2.62,0,0,0,.95-.68,2.82,2.82,0,0,0,.59-1.08,4.55,4.55,0,0,0,.21-1.44v-9.06h3.55v9.06a6.93,6.93,0,0,1-.46,2.58,5.66,5.66,0,0,1-3.37,3.35,8.12,8.12,0,0,1-5.5,0,5.7,5.7,0,0,1-2.06-1.32,5.82,5.82,0,0,1-1.31-2,7.13,7.13,0,0,1-.45-2.58v-9.06h3.55v9.05a4.55,4.55,0,0,0,.21,1.44,2.94,2.94,0,0,0,.59,1.09,2.71,2.71,0,0,0,.95.68A3.4,3.4,0,0,0,316.09,505.14Z"/><path class="a" d="M337.93,504a.56.56,0,0,1,.25.05.54.54,0,0,1,.24.16l1.41,1.48a5.88,5.88,0,0,1-2.31,1.82,8.13,8.13,0,0,1-3.3.62,7.75,7.75,0,0,1-3.12-.6,6.64,6.64,0,0,1-2.34-1.64,7.3,7.3,0,0,1-1.48-2.47,9.28,9.28,0,0,1-.51-3.12,8,8,0,0,1,.59-3.14,7.26,7.26,0,0,1,4.16-4.09,8.78,8.78,0,0,1,3.25-.58,8.41,8.41,0,0,1,1.62.15,7.92,7.92,0,0,1,1.43.42,7.3,7.3,0,0,1,1.21.64,6.22,6.22,0,0,1,1,.83l-1.2,1.6a1.38,1.38,0,0,1-.27.27.72.72,0,0,1-.44.12.86.86,0,0,1-.36-.08,2.7,2.7,0,0,1-.35-.21L337,496a3.41,3.41,0,0,0-.54-.26,4.49,4.49,0,0,0-.72-.21,5.5,5.5,0,0,0-1-.08,4.47,4.47,0,0,0-1.77.34,4.05,4.05,0,0,0-1.37,1,4.55,4.55,0,0,0-.89,1.54,6.07,6.07,0,0,0-.32,2,6.37,6.37,0,0,0,.32,2.09,4.87,4.87,0,0,0,.87,1.54,3.73,3.73,0,0,0,1.29.95,3.81,3.81,0,0,0,1.57.33,7.94,7.94,0,0,0,.89-.05,3.36,3.36,0,0,0,1.39-.46,5.81,5.81,0,0,0,.62-.46,1.17,1.17,0,0,1,.28-.17A.63.63,0,0,1,337.93,504Z"/><path class="a" d="M355.39,492.65v2.81h-4.3V508h-3.55V495.46h-4.31v-2.81Z"/><path class="a" d="M362.86,508h-3.57v-15.3h3.57Z"/><path class="a" d="M383.28,500.29a8.24,8.24,0,0,1-.57,3.09,7.32,7.32,0,0,1-4.12,4.14,9.1,9.1,0,0,1-6.5,0,7.29,7.29,0,0,1-4.13-4.14,8.49,8.49,0,0,1,0-6.17,7.33,7.33,0,0,1,1.61-2.48,7.55,7.55,0,0,1,2.52-1.65,9.1,9.1,0,0,1,6.5,0,7.69,7.69,0,0,1,2.51,1.66,7.33,7.33,0,0,1,1.61,2.48A8.18,8.18,0,0,1,383.28,500.29Zm-3.63,0a6.52,6.52,0,0,0-.3-2,4.16,4.16,0,0,0-.84-1.54,3.62,3.62,0,0,0-1.35-1,4.54,4.54,0,0,0-1.82-.34,4.63,4.63,0,0,0-1.83.34,3.55,3.55,0,0,0-1.35,1,4.33,4.33,0,0,0-.85,1.54,7.39,7.39,0,0,0,0,4.1,4.37,4.37,0,0,0,.85,1.53,3.68,3.68,0,0,0,1.35,1,5,5,0,0,0,1.83.33,4.92,4.92,0,0,0,1.82-.33,3.77,3.77,0,0,0,1.35-1,4.2,4.2,0,0,0,.84-1.53A6.56,6.56,0,0,0,379.65,500.29Z"/><path class="a" d="M389.87,492.67a.89.89,0,0,1,.29.08,1.11,1.11,0,0,1,.24.16l.26.28,7.27,9.19c0-.29-.05-.58-.07-.85s0-.54,0-.79v-8.09H401V508h-1.85a1.6,1.6,0,0,1-.69-.13,1.52,1.52,0,0,1-.55-.46l-7.21-9.11c0,.26,0,.52.05.78s0,.49,0,.72V508h-3.13v-15.3h1.87Z"/><path class="a" d="M351.22,310c-1.71,4.39-4.56,10.47-5.34,13.8-3,12.93-7.84,18.47-15.72,29.07a102.54,102.54,0,0,0-9.8,16.54c-1.13,2.43-4.84,5.48-7.11,5.27-13.33-1.22-22.74-8.89-29.6-20-1.95-3.16-1.55-2.43-4-6.26-8.26,13.4-14.24,25.37-23.66,36.1-19,19.87-25.46,17.79-37.36,27.26-1.92,1.53-5.39,1.09-8.14,1.57l-.72-2.29c5-3.45,10.17-6.69,15-10.4,19.15-14.84,31.29-34.95,42-56.17,5.15-10.24,10.27-11,17.65-2.24,3.45,4.09,5.45,9.37,8.71,13.65,2.63,3.46,5.71,7.06,9.41,9.12,6.18,3.43,11.06,3.57,14.38-5.31,7.21-19.32,15.76-38.16,24.09-57,1.38-3.12,4.42-5.5,6.69-8.22,2.52,2.42,6.2,4.39,7.37,7.34,9.32,23.5,17.95,47.27,27.24,70.78,5.12,13,11.22,25.55,16.62,38.41,1.53,3.65,2.14,7.68,3.37,12.24-6.28-2.28-23.49-38.37-29.73-56C365.48,347.29,360,331.17,351.22,310Z"/></svg>