<svg xmlns="http://www.w3.org/2000/svg" viewBox="209.77 294.49 192.53 203.07"><defs><style>.a{fill:#231f20;}</style></defs><path class="a" d="M225.19,427.47a3.17,3.17,0,0,1,1.92.91,9.25,9.25,0,0,1,1,1.08l36.44,46.42c-.13-1.12-.22-2.22-.27-3.29s-.07-2.07-.07-3V427.4h11.38v69.4h-6.68a5.9,5.9,0,0,1-2.54-.48,5.57,5.57,0,0,1-2-1.72l-36.29-46.23c.1,1,.17,2,.22,3.05s.07,1.93.07,2.76V496.8H217V427.4h6.76A11.5,11.5,0,0,1,225.19,427.47Z"/><path class="a" d="M328.85,440a3.62,3.62,0,0,1-1.22,1.49,3.09,3.09,0,0,1-1.66.43,4.26,4.26,0,0,1-2.16-.74c-.8-.5-1.74-1.05-2.83-1.66a23.27,23.27,0,0,0-3.82-1.66,16.16,16.16,0,0,0-5.16-.74,15.24,15.24,0,0,0-4.68.65,9.8,9.8,0,0,0-3.36,1.8,7.26,7.26,0,0,0-2,2.76,9,9,0,0,0-.67,3.53,6.15,6.15,0,0,0,1.37,4.08,11.42,11.42,0,0,0,3.62,2.78,32.93,32.93,0,0,0,5.14,2.06q2.88.92,5.88,1.95a57.52,57.52,0,0,1,5.88,2.4,20.25,20.25,0,0,1,5.13,3.45,15.64,15.64,0,0,1,3.63,5.12,17.74,17.74,0,0,1,1.37,7.34,24,24,0,0,1-1.61,8.81A20.25,20.25,0,0,1,327,491a22.14,22.14,0,0,1-7.56,4.8,27.75,27.75,0,0,1-10.22,1.75,33.16,33.16,0,0,1-6.53-.64,35.21,35.21,0,0,1-6.17-1.85A32.81,32.81,0,0,1,291,492.2a26.89,26.89,0,0,1-4.58-3.75l3.74-6.19a5,5,0,0,1,1.28-1.13,3.1,3.1,0,0,1,1.65-.45,4.59,4.59,0,0,1,2.59,1c.93.66,2,1.39,3.29,2.18a25.51,25.51,0,0,0,4.47,2.19,17.34,17.34,0,0,0,6.16,1q5.52,0,8.55-2.61c2-1.75,3-4.25,3-7.52a6.92,6.92,0,0,0-1.37-4.46,11,11,0,0,0-3.62-2.9,27,27,0,0,0-5.14-2q-2.88-.81-5.85-1.77a49.48,49.48,0,0,1-5.86-2.31,18.73,18.73,0,0,1-5.13-3.5,15.84,15.84,0,0,1-3.63-5.4,20.6,20.6,0,0,1-1.37-8,19.21,19.21,0,0,1,5.93-13.78,21.9,21.9,0,0,1,7.13-4.46,26,26,0,0,1,9.65-1.68,32.43,32.43,0,0,1,11.33,1.92,25.52,25.52,0,0,1,8.83,5.38Z"/><path class="a" d="M392.79,480.44a2.46,2.46,0,0,1,1.83.81l5.08,5.52a27.94,27.94,0,0,1-10.39,8,35.91,35.91,0,0,1-14.81,2.78,35,35,0,0,1-13.89-2.64,30.62,30.62,0,0,1-10.54-7.34,32.36,32.36,0,0,1-6.7-11.23,42.23,42.23,0,0,1-2.32-14.26,38.34,38.34,0,0,1,2.59-14.33,32.39,32.39,0,0,1,18.55-18.53,38.77,38.77,0,0,1,14.47-2.61,34.08,34.08,0,0,1,13.51,2.47,31.69,31.69,0,0,1,9.92,6.55l-4.32,6a4,4,0,0,1-1,1,2.76,2.76,0,0,1-1.65.43,3.81,3.81,0,0,1-2.26-.86,26.66,26.66,0,0,0-2.93-1.87,24.83,24.83,0,0,0-20.37-1,20,20,0,0,0-7.06,4.88,22.48,22.48,0,0,0-4.61,7.7,29.73,29.73,0,0,0-1.65,10.2,30.5,30.5,0,0,0,1.65,10.42,23,23,0,0,0,4.49,7.68,19.11,19.11,0,0,0,6.67,4.77,20.52,20.52,0,0,0,8.26,1.66,36.41,36.41,0,0,0,4.78-.29,20.58,20.58,0,0,0,3.93-.91,17.44,17.44,0,0,0,3.41-1.61,20.66,20.66,0,0,0,3.19-2.42,4.7,4.7,0,0,1,1-.7A2.59,2.59,0,0,1,392.79,480.44Z"/><path class="a" d="M351.22,310c-1.71,4.39-4.56,10.47-5.34,13.8-3,12.93-7.84,18.47-15.72,29.07a102.54,102.54,0,0,0-9.8,16.54c-1.13,2.43-4.84,5.48-7.11,5.27-13.33-1.22-22.74-8.89-29.6-20-1.95-3.16-1.55-2.43-4-6.26-8.26,13.4-14.24,25.37-23.66,36.1-19,19.87-25.46,17.79-37.36,27.26-1.92,1.53-5.39,1.09-8.14,1.57l-.72-2.29c5-3.45,10.17-6.69,15-10.4,19.15-14.84,31.29-34.95,42-56.17,5.15-10.24,10.27-11,17.65-2.24,3.45,4.09,5.45,9.37,8.71,13.65,2.63,3.46,5.71,7.06,9.41,9.12,6.18,3.43,11.06,3.57,14.38-5.31,7.21-19.32,15.76-38.16,24.09-57,1.38-3.12,4.42-5.5,6.69-8.22,2.52,2.42,6.2,4.39,7.37,7.34,9.32,23.5,17.95,47.27,27.24,70.78,5.12,13,11.22,25.55,16.62,38.41,1.53,3.65,2.14,7.68,3.37,12.24-6.28-2.28-23.49-38.37-29.73-56C365.48,347.29,360,331.17,351.22,310Z"/></svg>